<svg xmlns="http://www.w3.org/2000/svg" xml:space="preserve" id="Layer_1" x="0" y="0" viewBox="0 0 1080 1080"><style>.st0{fill:#ad78d8}.st1{fill:#c7a3e8}</style><path d="M153.28 347.32 472.56 28.03c37.37-37.37 97.94-37.37 135 0L926.53 347c23.2 23.2 23.2 60.57 0 83.45l-18.04 18.36-25.77 25.78c-23.2 23.2-60.57 23.2-83.77 0L581.79 257.43c-22.88-23.2-60.25-23.2-83.45 0L280.86 474.58c-19.01 19.33-47.68 22.55-70.24 9.67-4.83-2.26-9.34-5.8-13.21-9.67l-25.78-25.78-18.36-18.04c-2.9-3.22-5.48-6.44-7.73-9.99-14.81-22.87-12.24-53.48 7.74-73.45" class="st0"/><path d="M934.39 420.78c-14.82 15.14-39.31 15.14-54.13.32l-37.05 36.73 26.1 26.42c4.83-2.26 9.34-5.8 13.21-9.67l25.78-25.78 18.36-18.04c2.9-3.22 5.48-6.44 7.73-9.98M145.54 420.78c14.82 15.14 39.31 15.14 54.13.32l37.05 36.73-26.1 26.42c-4.83-2.26-9.34-5.8-13.21-9.67l-25.78-25.78-18.36-18.04c-2.89-3.22-5.47-6.44-7.73-9.98" class="st1"/><path d="m908.56 448.95-25.78 25.78c-23.2 23.2-60.57 23.2-83.77 0L581.87 257.57c-22.88-23.2-60.25-23.2-83.45 0L280.94 474.73c-22.87 23.2-60.25 23.2-83.45 0l-25.77-25.78 313.16-313.49c30.61-30.29 79.9-30.29 110.51 0z" class="st1"/><path d="m926.72 732.68-319.29 319.29c-37.37 37.37-97.94 37.37-135 0L153.47 733c-23.2-23.2-23.2-60.57 0-83.45l18.04-18.36 25.77-25.78c23.2-23.2 60.57-23.2 83.77 0L498.2 822.57c22.88 23.2 60.25 23.2 83.45 0l217.48-217.16c19.01-19.33 47.68-22.55 70.24-9.67 4.83 2.26 9.34 5.8 13.21 9.67l25.78 25.78 18.36 18.04c2.9 3.22 5.48 6.44 7.73 9.99 14.82 22.88 12.25 53.49-7.73 73.46" class="st0"/><path d="M145.61 659.22c14.82-15.14 39.31-15.14 54.13-.32l37.05-36.73-26.1-26.42c-4.83 2.26-9.34 5.8-13.21 9.67L171.7 631.2l-18.36 18.04c-2.9 3.22-5.48 6.44-7.73 9.98M934.46 659.22c-14.82-15.14-39.31-15.14-54.13-.32l-37.05-36.73 26.1-26.42c4.83 2.26 9.34 5.8 13.21 9.67l25.78 25.78 18.36 18.04c2.89 3.22 5.47 6.44 7.73 9.98" class="st1"/><path d="m171.44 631.05 25.78-25.78c23.2-23.2 60.57-23.2 83.77 0l217.15 217.16c22.88 23.2 60.25 23.2 83.45 0l217.48-217.16c22.87-23.2 60.25-23.2 83.45 0l25.77 25.78-313.18 313.48c-30.61 30.29-79.9 30.29-110.51 0z" class="st1"/><path d="m503.64 643.7-63.81-63.81c-20.96-20.96-20.96-54.94 0-75.89l63.81-63.81c20.96-20.96 54.94-20.96 75.89 0L643.34 504c20.96 20.96 20.96 54.94 0 75.89l-63.81 63.81c-20.95 20.96-54.93 20.96-75.89 0" style="fill:#fff"/></svg>