<svg xmlns="http://www.w3.org/2000/svg" xml:space="preserve" viewBox="0 0 1080 1080"><path d="M1008.1 366.87 713.25 71.54c-95.87-95.39-250.52-95.39-346.39 0L71.54 366.87c-95.39 95.39-95.39 250.52 0 345.91l295.32 295.32c95.87 95.87 250.52 95.87 346.39 0l294.84-295.32c95.88-95.4 95.88-250.53.01-345.91M869.35 617.38 617.38 869.35c-43.36 43.36-114.18 43.36-157.54 0L207.88 617.38c-43.84-43.84-43.84-114.18 0-157.54l251.97-251.96c43.36-43.84 114.18-43.84 157.54 0l251.97 251.96c43.35 43.36 43.35 113.7-.01 157.54" style="fill:#6c7178"/><path d="M511.19 694.28 384.2 567.29c-15.94-15.94-15.94-41.77 0-57.71l126.99-126.99c15.94-15.94 41.77-15.94 57.71 0l126.99 126.99c15.94 15.94 15.94 41.77 0 57.71L568.9 694.28c-15.94 15.93-41.78 15.93-57.71 0" style="fill:#8b979c"/></svg>