<svg xmlns="http://www.w3.org/2000/svg" xml:space="preserve" id="Layer_1" x="0" y="0" viewBox="0 0 1080 1080"><style>.st0{fill:#d44e50}.st2{fill:#71bfdd}.st4{fill:#fff}.st5{fill:none;stroke:#9d2323;stroke-width:30.0834;stroke-linecap:round;stroke-linejoin:round;stroke-miterlimit:10}.st7{fill:#8083bf}.st10{opacity:.21;fill:#c7a3e8}</style><path d="M-695.24 2086.77c0 52.05-40.1 105.53-121.28 142.77-81.18-37.24-121.3-90.73-121.3-142.77 0-33.49 27.15-60.64 60.66-60.64 27.21 0 42.49 15.28 60.64 42.98 18.14-27.7 33.42-42.98 60.64-42.98 33.48-.01 60.64 27.15 60.64 60.64" class="st0"/><path d="M89.46 873.94c-28.21-28.21-28.21-73.95 0-102.16l499.03-499.03 102.16 102.16-499.03 499.03c-28.21 28.21-73.95 28.21-102.16 0" style="fill:#6195d9"/><path d="m597.64 478.85 91.26 104.78c34.95 40.12 96.57 42.25 134.19 4.62l157.16-157.16c41.16-41.16 34.14-109.73-14.5-141.69l-118.3-77.74c-36.39-23.92-84.58-18.98-115.38 11.81L601.95 353.59c-34.13 34.13-36.02 88.86-4.31 125.26" class="st2"/><path d="m542.1 336.38 147.79 147.79c22.12 22.12 57.99 22.12 80.11 0l69.2-69.2c22.12-22.12 22.12-57.99 0-80.11L691.41 187.07c-22.12-22.12-57.99-22.12-80.11 0l-69.2 69.2c-22.12 22.13-22.12 57.99 0 80.11" class="st2"/><path d="M-729.22 1451.64c-2.14 48.37-42.05 86.94-90.95 86.94s-88.81-38.56-90.95-86.94c31.93-8.24 64-9.83 90.95 0 26.26 9.58 57.19 14.64 90.95 0" style="fill:#d65474"/><path d="M-810.56 1351.89v18.21c0 9.77 5.97 18.55 15.06 22.13 12.42 4.9 23.02 13.32 30.67 24.35 7.8 11.26 11.93 24.49 11.93 38.26 0 37.09-30.17 67.26-67.26 67.26s-67.26-30.17-67.26-67.26c0-13.77 4.12-27 11.93-38.26 7.64-11.03 18.25-19.45 30.67-24.35a23.79 23.79 0 0 0 15.06-22.13v-18.21zm23.79-23.79h-66.8v42c-33.76 13.32-57.65 46.24-57.65 84.74 0 50.29 40.77 91.05 91.05 91.05s91.05-40.77 91.05-91.05c0-38.5-23.89-71.42-57.65-84.74z" class="st4"/><path d="M-788.14 1294.24h-65.89c-11.37 0-20.59 9.22-20.59 20.59s9.22 20.59 20.59 20.59h65.89c11.37 0 20.59-9.22 20.59-20.59s-9.22-20.59-20.59-20.59" class="st4"/><path d="M-883.91 2089.32c7.17 15.78 19.92 31.57 38.24 47.35M-749.15 2089.32c-7.17 15.78-19.92 31.57-38.24 47.35" class="st5"/><path d="M-820.34 2393.68c37.18 0 67.43 30.25 67.43 67.43s-30.25 67.43-67.43 67.43-67.43-30.25-67.43-67.43 30.25-67.43 67.43-67.43m0-23.79c-50.38 0-91.23 40.84-91.23 91.23 0 50.38 40.84 91.23 91.23 91.23s91.23-40.84 91.23-91.23c-.01-50.39-40.85-91.23-91.23-91.23" class="st0"/><path d="m-868.05 2509.31 94.5-94.49" style="fill:none;stroke:#d44e50;stroke-width:23.7932;stroke-linecap:round;stroke-linejoin:round;stroke-miterlimit:10"/><path d="M-811.04 1709.56c-1.38 0-2.74 0-4.09.01v-.02c1.37 0 2.74 0 4.09.01" class="st7"/><path d="M-867.81 1864.15c29.44-12.93 60.39-13.73 93.16 0l37.54-25.18-10.66-93.27H-893.3l-13.9 75.2z" style="fill:#6e4a91"/><path d="M-769.4 1872.74c-16.55 0-23.45 3.87-23.45-12.67 0-16.55 6.9-29.96 23.45-29.96v-.01c20.28-.25 23.18-16.39 22.85-38.07-.15-9.97-6.45-18.64-15.3-21.91-2.43-.91-5.05-1.4-7.79-1.4-26.48 0-33.61 7.3-33.61 21.34 0 20.37-8.88 25.76-15.89 25.76h-3.9c-7 0-15.88-5.69-15.88-25.76 0-12.31-5.48-19.43-24.65-21-2.7-.22-5.68-.33-8.96-.33-12.71 0-22.89 10.6-23.09 23.31-.15 9.6.34 18.12 2.69 24.64 2.96 8.22 8.86 13.29 20.16 13.43v.01c16.55 0 18.18 13.42 18.18 29.96 0 16.55-1.64 12.67-18.18 12.67-22.02 0-33.73-9.75-39.96-23.96-7.69-17.51-7.02-41.78-7.02-62.93 0-69.81 44.45-86.97 98.67-86.97h.79c36.79.1 66.69 7.28 83.37 30.8 9.3 13.11 14.49 31.29 14.49 56.17.01 38.31 2.16 86.88-46.97 86.88" style="fill:#8f72a5"/><path d="M-806.95 1709.55v.02c-1.35-.01-2.72-.01-4.09-.01 1.35-.01 2.71-.01 4.09-.01" class="st7"/><path d="M-854.59 1860.07c0 16.55-1.64 12.67-18.18 12.67-22.02 0-33.73-9.75-39.96-23.96l19.8-32.12c2.96 8.22 8.86 13.29 20.16 13.43v.01c16.55.01 18.18 13.42 18.18 29.97M-736.92 1729.68l-24.93 40.44c-2.43-.91-5.05-1.4-7.79-1.4-26.48 0-33.61 7.3-33.61 21.34 0 20.37-8.88 25.76-15.89 25.76h-3.9c-7 0-15.88-5.69-15.88-25.76 0-12.31-5.48-19.43-24.65-21l43.28-70.17c36.79.1 66.69 7.27 83.37 30.79" class="st10"/></svg>