<svg xmlns="http://www.w3.org/2000/svg" xml:space="preserve" id="Layer_1" x="0" y="0" viewBox="0 0 1080 1080"><style>.st0{fill:none;stroke:#c0bdf7;stroke-width:112.6696;stroke-miterlimit:10}.st3{fill:#71bfdd}.st4{fill:#d44e50}.st5{fill:#6195d9}.st7{fill:#fff}.st8{fill:none;stroke:#9d2323;stroke-width:30.0834;stroke-linecap:round;stroke-linejoin:round;stroke-miterlimit:10}.st10{fill:#8083bf}.st13{opacity:.21;fill:#c7a3e8}</style><path d="M667.91 1000.52 549.18 558.88M536.97 546.67 91.62 424.23M549.18 546.67l329.67-333.38" class="st0"/><path d="m711.29 957.14 245.97-245.97c26.84-26.84 37.32-65.96 27.5-102.63l-90.03-336c-9.82-36.67-38.46-65.3-75.13-75.13l-336-90.03c-36.67-9.82-75.79.66-102.63 27.5L135 380.85c-26.84 26.84-37.32 65.96-27.5 102.63l90.03 336c9.82 36.67 38.46 65.3 75.13 75.13l336 90.03c36.66 9.83 75.79-.65 102.63-27.5z" style="fill:none;stroke:#fff;stroke-width:112.6696;stroke-miterlimit:10"/><path d="M805.48 629.12v-171c0-39.75-21.21-76.48-55.63-96.35l-148.09-85.5c-34.42-19.87-76.84-19.87-111.26 0l-148.09 85.5c-34.42 19.87-55.63 56.6-55.63 96.35v171c0 39.75 21.21 76.48 55.63 96.35l148.09 85.5c34.42 19.87 76.84 19.87 111.26 0l148.09-85.5c34.42-19.87 55.63-56.6 55.63-96.35" style="fill:#c889e6"/><path d="m-735.91 669.03-44.24 19.4c-1.74.76-3.33 1.85-4.67 3.19l-85.83 85.83 47.04 47.04 85.75-85.75c1.4-1.4 2.51-3.05 3.28-4.88l18.91-44.9c5.36-12.73-7.58-25.48-20.24-19.93" class="st3"/><path d="M-695.24 2086.77c0 52.05-40.1 105.53-121.28 142.77-81.18-37.24-121.3-90.73-121.3-142.77 0-33.49 27.15-60.64 60.66-60.64 27.21 0 42.49 15.28 60.64 42.98 18.14-27.7 33.42-42.98 60.64-42.98 33.48-.01 60.64 27.15 60.64 60.64" class="st4"/><path d="m-808.87 845.79-14.03 14.02c-2.21 2.21-5.79 2.21-7.99 0l-22.03-22.03a5.655 5.655 0 0 0-8 0l-20.02 20.04c-2.21 2.21-2.21 5.79 0 7.99 2.21 2.21 2.21 5.79 0 7.99l-16.02 16.02c-2.21 2.21-5.79 2.21-7.99 0l-30.03-30.04c-2.21-2.21-2.21-5.79 0-7.99l16.02-16.02c2.21-2.21 5.79-2.21 7.99 0l.01.01a5.655 5.655 0 0 0 8 0l20.03-20.04c2.21-2.21 2.21-5.79 0-7.99l-22.03-22.02a5.655 5.655 0 0 1 0-8l14.03-14.02c2.21-2.21 5.79-2.21 7.99 0l74.07 74.07a5.667 5.667 0 0 1 0 8.01M-936.39 1181.58c-7.44-7.44-7.44-19.5 0-26.94l131.61-131.61 26.94 26.94-131.61 131.61c-7.44 7.44-19.5 7.44-26.94 0" class="st5"/><path d="m-802.36 1077.38 24.07 27.64c9.22 10.58 25.47 11.14 35.39 1.22l41.45-41.45c10.85-10.85 9-28.94-3.83-37.37l-31.2-20.5c-9.6-6.31-22.31-5.01-30.43 3.11l-34.32 34.32c-9 8.99-9.49 23.43-1.13 33.03" class="st3"/><path d="m-817.01 1039.8 38.98 38.98c5.83 5.83 15.29 5.83 21.13 0l18.25-18.25c5.83-5.83 5.83-15.29 0-21.13l-38.98-38.98c-5.83-5.83-15.29-5.83-21.13 0l-18.25 18.25c-5.84 5.84-5.84 15.3 0 21.13" class="st3"/><path d="M-729.22 1451.64c-2.14 48.37-42.05 86.94-90.95 86.94s-88.81-38.56-90.95-86.94c31.93-8.24 64-9.83 90.95 0 26.26 9.58 57.19 14.64 90.95 0" style="fill:#d65474"/><path d="M-810.56 1351.89v18.21c0 9.77 5.97 18.55 15.06 22.13 12.42 4.9 23.02 13.32 30.67 24.35 7.8 11.26 11.93 24.49 11.93 38.26 0 37.09-30.17 67.26-67.26 67.26s-67.26-30.17-67.26-67.26c0-13.77 4.12-27 11.93-38.26 7.64-11.03 18.25-19.45 30.67-24.35a23.79 23.79 0 0 0 15.06-22.13v-18.21zm23.79-23.79h-66.8v42c-33.76 13.32-57.65 46.24-57.65 84.74 0 50.29 40.77 91.05 91.05 91.05s91.05-40.77 91.05-91.05c0-38.5-23.89-71.42-57.65-84.74z" class="st7"/><path d="M-788.14 1294.24h-65.89c-11.37 0-20.59 9.22-20.59 20.59s9.22 20.59 20.59 20.59h65.89c11.37 0 20.59-9.22 20.59-20.59s-9.22-20.59-20.59-20.59" class="st7"/><path d="M-883.91 2089.32c7.17 15.78 19.92 31.57 38.24 47.35M-749.15 2089.32c-7.17 15.78-19.92 31.57-38.24 47.35" class="st8"/><path d="M-820.34 2393.68c37.18 0 67.43 30.25 67.43 67.43s-30.25 67.43-67.43 67.43-67.43-30.25-67.43-67.43 30.25-67.43 67.43-67.43m0-23.79c-50.38 0-91.23 40.84-91.23 91.23 0 50.38 40.84 91.23 91.23 91.23s91.23-40.84 91.23-91.23c-.01-50.39-40.85-91.23-91.23-91.23" class="st4"/><path d="m-868.05 2509.31 94.5-94.49" style="fill:none;stroke:#d44e50;stroke-width:23.7932;stroke-linecap:round;stroke-linejoin:round;stroke-miterlimit:10"/><path d="M-811.04 1709.56c-1.38 0-2.74 0-4.09.01v-.02c1.37 0 2.74 0 4.09.01" class="st10"/><path d="M-867.81 1864.15c29.44-12.93 60.39-13.73 93.16 0l37.54-25.18-10.66-93.27H-893.3l-13.9 75.2z" style="fill:#6e4a91"/><path d="M-769.4 1872.74c-16.55 0-23.45 3.87-23.45-12.67 0-16.55 6.9-29.96 23.45-29.96v-.01c20.28-.25 23.18-16.39 22.85-38.07-.15-9.97-6.45-18.64-15.3-21.91-2.43-.91-5.05-1.4-7.79-1.4-26.48 0-33.61 7.3-33.61 21.34 0 20.37-8.88 25.76-15.89 25.76h-3.9c-7 0-15.88-5.69-15.88-25.76 0-12.31-5.48-19.43-24.65-21-2.7-.22-5.68-.33-8.96-.33-12.71 0-22.89 10.6-23.09 23.31-.15 9.6.34 18.12 2.69 24.64 2.96 8.22 8.86 13.29 20.16 13.43v.01c16.55 0 18.18 13.42 18.18 29.96 0 16.55-1.64 12.67-18.18 12.67-22.02 0-33.73-9.75-39.96-23.96-7.69-17.51-7.02-41.78-7.02-62.93 0-69.81 44.45-86.97 98.67-86.97h.79c36.79.1 66.69 7.28 83.37 30.8 9.3 13.11 14.49 31.29 14.49 56.17.01 38.31 2.16 86.88-46.97 86.88" style="fill:#8f72a5"/><path d="M-806.95 1709.55v.02c-1.35-.01-2.72-.01-4.09-.01 1.35-.01 2.71-.01 4.09-.01" class="st10"/><path d="M-854.59 1860.07c0 16.55-1.64 12.67-18.18 12.67-22.02 0-33.73-9.75-39.96-23.96l19.8-32.12c2.96 8.22 8.86 13.29 20.16 13.43v.01c16.55.01 18.18 13.42 18.18 29.97M-736.92 1729.68l-24.93 40.44c-2.43-.91-5.05-1.4-7.79-1.4-26.48 0-33.61 7.3-33.61 21.34 0 20.37-8.88 25.76-15.89 25.76h-3.9c-7 0-15.88-5.69-15.88-25.76 0-12.31-5.48-19.43-24.65-21l43.28-70.17c36.79.1 66.69 7.27 83.37 30.79" class="st13"/></svg>