<svg xmlns="http://www.w3.org/2000/svg" id="Layer_1" viewBox="0 0 279.82 243.16"><defs><style>.st0{stroke-linecap:round;stroke-linejoin:round}.st0,.st1{display:none}.st0,.st1,.st2{fill:none;stroke:#fff;stroke-width:20.59px}.st1,.st2{stroke-miterlimit:10}</style></defs><path d="m255.76 190.97-41.85 23.84c-9.91 5.65-22.52 2.38-28.44-7.36l-6.11-10.05a21.07 21.07 0 0 0-18.01-10.13h-42.51c-7.36 0-14.19 3.84-18.01 10.13l-6.11 10.05c-5.93 9.75-18.53 13.01-28.44 7.36l-41.83-23.83c-6.39-3.64-10.44-10.34-10.63-17.69-.24-8.9-.32-21.77.5-34.94 5.83-52.77 36.36-83.31 57.83-98.56 10.73-7.62 25.74-3.53 31.26 8.42a21.09 21.09 0 0 0 19.13 12.24h35.13c8.22 0 15.69-4.78 19.13-12.24 5.52-11.95 20.53-16.04 31.26-8.42 21.47 15.25 52 45.79 57.83 98.56.85 13.18.76 26.04.52 34.95-.21 7.34-4.25 14.03-10.63 17.67Z" class="st2"/><circle cx="187.54" cy="135.51" r="10.18" class="st2"/><circle cx="92.39" cy="135.51" r="10.18" class="st2"/></svg>