<svg xmlns="http://www.w3.org/2000/svg" width="750" height="750" style="shape-rendering:geometricPrecision;text-rendering:geometricPrecision;image-rendering:optimizeQuality;fill-rule:evenodd;clip-rule:evenodd"><path fill="#60606b" d="M574.5 131.5a50 50 0 0 1 2.5 7 373 373 0 0 1 15.5 17q-.69 7.764-4.5 15a820 820 0 0 1-42.5 41 108 108 0 0 0-8 9.5 23 23 0 0 1-5 2l-56 56a7463 7463 0 0 0-14 12l-61 61q-3.822 3.663-9 5-8.923.306-17.5-2.5l-1.5.5q1.129 1.006 1 2.5-10.083-13.843-23-25.5a28 28 0 0 1-4-1.5 9331 9331 0 0 0-83-101q-5.832-15.26 7-25.5a20587 20587 0 0 1 179-166q9-5 18 0a11266 11266 0 0 0 106 93.5" style="opacity:.988"/><path fill="#5b5b6d" d="M618.5 176.5a147 147 0 0 1-8-2.5 157.7 157.7 0 0 0-18-18.5 373 373 0 0 0-15.5-17 50 50 0 0 0-2.5-7q-.25-30.005.5-60 2.913-9.414 12.5-11.5a2209 2209 0 0 1 94 0q7.75 1.75 9.5 9.5l.5 47q.207 25.575-1.5 51-3.333 5.832-9.5 8.5-30.996.75-62 .5" style="opacity:.973"/><path fill="#444451" d="M459.5 109.5q13.206-.54 15 12.5a495 495 0 0 1-6.5 33.5 409.5 409.5 0 0 1-10.5 61 103 103 0 0 0-7 6.5 1746 1746 0 0 0-98 20q-9.29 2.567-15.5-4.5a25.2 25.2 0 0 1 0-10q6.556-9.711 16.5-16.5a15647 15647 0 0 0 106-102.5" style="opacity:1"/><path fill="#4d4d5c" d="M592.5 155.5a157.7 157.7 0 0 1 18 18.5q4.126 1.414 8 2.5 30.047 33.787 65.5 64a796 796 0 0 1 32 35q7.39 10.42-1 20A20370 20370 0 0 1 548.5 467a59.5 59.5 0 0 1-13.5 4.5 38.5 38.5 0 0 1-14.5-5.5 454 454 0 0 1-41-28 2997 2997 0 0 0-58-39.5q-1.977-5.748-7-9.5a259 259 0 0 1-40-31.5q.129-1.494-1-2.5l1.5-.5q8.577 2.806 17.5 2.5 5.178-1.337 9-5l61-61a7463 7463 0 0 1 14-12l56-56a23 23 0 0 0 5-2 108 108 0 0 1 8-9.5 820 820 0 0 0 42.5-41q3.81-7.236 4.5-15" style="opacity:.993"/><path fill="#444451" d="M632.5 274.5q13.521-3.004 17 10a41.8 41.8 0 0 1-3.5 8Q588.33 348.168 530.5 404q-14.645 8.784-18-8 6.668-41.755 13.5-83.5-.579-16.673 15.5-19.5a3134 3134 0 0 0 91-18.5" style="opacity:1"/><path fill="#9191b7" d="M347.5 330.5q1.899.885 4 1.5 12.917 11.657 23 25.5a259 259 0 0 0 40 31.5q5.023 3.752 7 9.5a2385 2385 0 0 1-59 57q-5.56 2.784-10 7.5.834.574 1 1.5-5 6-11 11-1.22-1.73-3 0-1.393 1.783-1 4l-6 5h-3v3a148891 148891 0 0 1-37 36q-.595-1.538-2-.5-6.405 5.642-11 12.5a55 55 0 0 1-7 7q.197-1.314-1-2a32.5 32.5 0 0 1-5 4.5l1 1a4.93 4.93 0 0 1-3 .5v4q-6.961 6.458-14 13a127 127 0 0 0-11 8.5q.834.575 1 1.5-8.5 7.5-16 16a2.43 2.43 0 0 0-2 .5q-1.857 1.035 0 1.5a335 335 0 0 0-27.5 26 939 939 0 0 0-2 59q-5.44 13.435-19.5 17.5-52.545.678-105-2-9.639-5.032-12.5-15.5-1-33 0-66 .11-20.582 2-41 4.788-8.787 13.5-13.5a778 778 0 0 1 52-2 3432 3432 0 0 0 98.5-98.5 7390 7390 0 0 0 125.5-125" style="opacity:.961"/><path fill="#efefef" d="M362.5 455.5a57.5 57.5 0 0 1-9 9q-.166-.926-1-1.5 4.44-4.716 10-7.5" style="opacity:.006"/><path fill="#3526be" d="M342.5 475.5q-1.5 2.5-4 4-.393-2.217 1-4 1.78-1.73 3 0" style="opacity:.008"/><path fill="#6051f7" d="M332.5 484.5a6.55 6.55 0 0 1-3 3v-3z" style="opacity:.008"/><path fill="#fefffe" d="m292.5 523.5-13 12q4.595-6.858 11-12.5 1.405-1.038 2 .5" style="opacity:.006"/><path fill="#7467de" d="M272.5 542.5q-3.5 4.5-8 8v-4a4.93 4.93 0 0 0 3-.5l-1-1a32.5 32.5 0 0 0 5-4.5q1.197.686 1 2" style="opacity:.021"/><path fill="#fbfbfb" d="M250.5 563.5q-4.5 5.5-10 10-.166-.925-1-1.5a127 127 0 0 1 11-8.5" style="opacity:.006"/><path fill="#00f" d="M224.5 589.5q-.5 1.5-2 2-1.857-.465 0-1.5a2.43 2.43 0 0 1 2-.5" style="opacity:.004"/></svg>