<svg xmlns="http://www.w3.org/2000/svg" xml:space="preserve" id="Layer_1" x="0" y="0" viewBox="0 0 1080 1080"><style>.st0{fill:#d44e50}.st1{fill:none;stroke:#9d2323;stroke-width:30.0834;stroke-linecap:round;stroke-linejoin:round;stroke-miterlimit:10}.st3{fill:#8083bf}.st6{opacity:.21;fill:#c7a3e8}</style><path d="M-695.24 2086.77c0 52.05-40.1 105.53-121.28 142.77-81.18-37.24-121.3-90.73-121.3-142.77 0-33.49 27.15-60.64 60.66-60.64 27.21 0 42.49 15.28 60.64 42.98 18.14-27.7 33.42-42.98 60.64-42.98 33.48-.01 60.64 27.15 60.64 60.64" class="st0"/><path d="M-883.91 2089.32c7.17 15.78 19.92 31.57 38.24 47.35M-749.15 2089.32c-7.17 15.78-19.92 31.57-38.24 47.35" class="st1"/><path d="M-820.34 2393.68c37.18 0 67.43 30.25 67.43 67.43s-30.25 67.43-67.43 67.43-67.43-30.25-67.43-67.43 30.25-67.43 67.43-67.43m0-23.79c-50.38 0-91.23 40.84-91.23 91.23 0 50.38 40.84 91.23 91.23 91.23s91.23-40.84 91.23-91.23c-.01-50.39-40.85-91.23-91.23-91.23" class="st0"/><path d="m-868.05 2509.31 94.5-94.49" style="fill:none;stroke:#d44e50;stroke-width:23.7932;stroke-linecap:round;stroke-linejoin:round;stroke-miterlimit:10"/><path d="M587.56 177.99c-6.51 0-12.97 0-19.37.05v-.11c6.51 0 12.97 0 19.37.06" class="st3"/><path d="M318.76 910.04c139.39-61.23 285.97-65.01 441.16 0L937.7 790.79l-50.48-441.68H198.05L132.2 705.19z" style="fill:#6e4a91"/><path d="M784.75 950.72c-78.35 0-111.04 18.34-111.04-60.01s32.69-141.89 111.04-141.89v-.05c96.04-1.19 109.77-77.59 108.2-180.26-.7-47.21-30.55-88.28-72.44-103.75-11.5-4.29-23.93-6.62-36.9-6.62-125.4 0-159.15 34.56-159.15 101.03 0 96.48-42.05 121.98-75.26 121.98h-18.45c-33.15 0-75.21-26.97-75.21-121.98 0-58.28-25.94-92.03-116.72-99.46-12.8-1.03-26.91-1.57-42.43-1.57-60.17 0-108.41 50.19-109.34 110.37-.71 45.47 1.63 85.79 12.75 116.66 14 38.91 41.94 62.94 95.44 63.59v.05c78.35 0 86.11 63.54 86.11 141.89s-7.76 60.01-86.11 60.01c-104.29 0-159.74-46.18-189.21-113.46-36.41-82.91-33.26-197.84-33.26-298 0-330.56 210.48-411.84 467.24-411.84h3.74c174.23.49 315.8 34.46 394.81 145.85 44.06 62.07 68.64 148.19 68.64 265.99.02 181.46 10.22 411.47-222.45 411.47" style="fill:#8f72a5"/><path d="M606.93 177.93v.11c-6.4-.05-12.86-.05-19.37-.05 6.4-.06 12.86-.06 19.37-.06" class="st3"/><path d="M381.36 890.71c0 78.35-7.76 60.01-86.11 60.01-104.29 0-159.74-46.18-189.21-113.46l93.76-152.09c14 38.91 41.94 62.94 95.44 63.59v.05c78.37 0 86.12 63.54 86.12 141.9M938.58 273.27 820.5 464.76c-11.5-4.29-23.93-6.62-36.9-6.62-125.4 0-159.15 34.56-159.15 101.03 0 96.48-42.05 121.98-75.26 121.98h-18.45c-33.15 0-75.21-26.97-75.21-121.98 0-58.28-25.94-92.03-116.72-99.46l204.94-332.3c174.26.49 315.82 34.46 394.83 145.86" class="st6"/></svg>