<svg xmlns="http://www.w3.org/2000/svg" id="Layer_1" viewBox="0 0 279.82 243.16"><defs><style>.st0,.st4{fill:none;stroke-width:20.59px;stroke-miterlimit:10}.st0{stroke:#000;display:none}.st4{stroke:#fff}</style></defs><path d="M157.43 152.45v21.27c0 1.82.63 3.58 1.79 4.99l27.86 33.85c4.22 5.12.57 12.84-6.06 12.84H98.19c-6.64 0-10.28-7.72-6.06-12.84l27.89-33.84a7.85 7.85 0 0 0 1.79-4.99v-21.27c0-3.03-1.74-5.78-4.47-7.08l-41.52-19.83a7.85 7.85 0 0 1-4.47-7.08V29.54c0-7.22 5.85-13.07 13.07-13.07h110.34c7.22 0 13.07 5.85 13.07 13.07v88.92c0 3.02-1.74 5.78-4.47 7.08l-41.48 19.82a7.85 7.85 0 0 0-4.47 7.08Z" style="fill:none;stroke-width:20.59px;stroke:#fff;stroke-linecap:round;stroke-linejoin:round"/><path d="M207.84 37.35h30.31c10.66 0 18.35 10.22 15.4 20.46L243.14 94a16.02 16.02 0 0 1-17.12 11.5l-18.18-1.95zM71.35 37.35H41.04c-10.66 0-18.35 10.22-15.4 20.46L36.05 94a16.02 16.02 0 0 0 17.12 11.5l18.18-1.95z" class="st4"/></svg>