<svg xmlns="http://www.w3.org/2000/svg" xml:space="preserve" viewBox="0 0 512 512"><circle cx="256.6" cy="257.7" r="215.4" style="fill:#10574b"/><radialGradient id="a" cx="455.166" cy="742.126" r="254.582" gradientTransform="matrix(.4023 -.07297 -.07297 .4023 195.29 58.14)" gradientUnits="userSpaceOnUse"><stop offset="0" style="stop-color:#010202"/><stop offset=".863" style="stop-color:#000;stop-opacity:0"/></radialGradient><path d="M426.6 305c-10.2 56.5-64.4 110.7-120.9 120.9s-94.1-27.3-83.9-83.9 64.5-110.7 121-121c56.7-10.2 94.2 27.4 83.8 84" style="fill:url(#a)"/><radialGradient id="b" cx="15.845" cy="293.96" r="254.68" gradientTransform="matrix(.4023 -.07297 -.07297 .4023 195.29 58.14)" gradientUnits="userSpaceOnUse"><stop offset="0" style="stop-color:#010202"/><stop offset=".863" style="stop-color:#000;stop-opacity:0"/></radialGradient><path d="M282.7 156.7c-10.3 56.5-64.5 110.7-121 121s-94.2-27.3-83.9-83.9 64.5-110.7 121.1-121 94.1 27.2 83.8 83.9" style="fill:url(#b)"/><radialGradient id="c" cx="-71.414" cy="-104.478" r="254.629" gradientTransform="matrix(-.03216 -.4597 .442 .1304 293.667 234.617)" gradientUnits="userSpaceOnUse"><stop offset="0" style="stop-color:#010202"/><stop offset=".863" style="stop-color:#000;stop-opacity:0"/></radialGradient><path d="M241.6 136.8c62.2 18.4 116.2 85.6 120.8 150.3S320.1 389.3 258 370.9s-116.3-85.5-120.8-150.3c-4.4-64.7 42.2-102.1 104.4-83.8" style="fill:url(#c)"/><radialGradient id="d" cx="173.555" cy="9.686" r="254.649" gradientTransform="matrix(.07925 -.8725 .8691 .1104 227.653 415.014)" gradientUnits="userSpaceOnUse"><stop offset="0" style="stop-color:#010202"/><stop offset=".863" style="stop-color:#000;stop-opacity:0"/></radialGradient><path d="M270 42.5C392.3 58 482.3 170.1 471.1 292.8s-119.2 209.5-241.5 194C107.4 471.4 17.3 359.3 28.5 236.5S147.8 27 270 42.5" style="fill:url(#d)"/><radialGradient id="e" cx="158.943" cy="-37.444" r="143.067" gradientTransform="rotate(-45 358.127 76.959)scale(1 .8613)" gradientUnits="userSpaceOnUse"><stop offset=".621" style="stop-color:#40bc9e"/><stop offset=".94" style="stop-color:#12574b"/></radialGradient><path d="M83.6 262.2c15.8 15.8 46.8-46.8 89.3-89.3s104.7-72 88.3-88.3c-10.7-10.7-74.2-16-133.9 43.7C73.4 182.1 68.4 247 83.6 262.2" style="fill:url(#e)"/><radialGradient id="f" cx="550.076" cy="-133.448" r="143.067" gradientTransform="rotate(135 359.132 90.706)scale(1 .8613)" gradientUnits="userSpaceOnUse"><stop offset=".621" style="stop-color:#40bc9e"/><stop offset=".94" style="stop-color:#12574b"/></radialGradient><path d="M426 249.6c-15.8-15.8-46.8 46.8-89.3 89.3s-104.6 71.9-88.3 88.3c10.7 10.7 74.2 16 133.9-43.7 53.9-53.9 58.9-118.7 43.7-133.9" style="fill:url(#f)"/><radialGradient id="g" cx="158.782" cy="-58.122" r="83.415" gradientTransform="rotate(-45 371.381 71.469)scale(1 .6536)" gradientUnits="userSpaceOnUse"><stop offset=".286" style="stop-color:#fff"/><stop offset=".691" style="stop-color:#40bc9e"/></radialGradient><path d="M106.1 210.8c7 7 27.3-27.3 52.2-52.2s58.7-44.2 51.5-51.5c-16.3-16.3-55.3 15.4-71.8 31.9-16.4 16.5-47.6 56-31.9 71.8" style="fill:url(#g)"/><radialGradient id="h" cx="227.858" cy="-185.011" r="83.415" gradientTransform="rotate(135 195.956 152.222)scale(1 .6536)" gradientUnits="userSpaceOnUse"><stop offset=".286" style="stop-color:#fff"/><stop offset=".691" style="stop-color:#40bc9e"/></radialGradient><path d="M404.1 301.6c-7-7-27.3 27.3-52.2 52.2s-58.7 44.2-51.5 51.5c16.3 16.3 55.3-15.4 71.8-31.9s47.7-56 31.9-71.8" style="fill:url(#h)"/></svg>