<svg xmlns="http://www.w3.org/2000/svg" xml:space="preserve" id="Layer_1" x="0" y="0" viewBox="0 0 1080 1080"><style>.st0{fill:#d44e50}.st1{fill:none;stroke:#9d2323;stroke-width:114.6936;stroke-linecap:round;stroke-linejoin:round;stroke-miterlimit:10}</style><path d="M1002.44 383.44c0 198.43-152.88 402.34-462.4 544.33C230.52 785.78 77.56 581.87 77.56 383.44c0-127.68 103.52-231.2 231.27-231.2 103.73 0 161.98 58.25 231.2 163.85 69.15-105.6 127.4-163.85 231.2-163.85 127.69 0 231.21 103.51 231.21 231.2" class="st0"/><path d="M283.14 393.16c27.33 60.17 75.93 120.34 145.8 180.52M796.92 393.16q-40.98 90.255-145.8 180.51" class="st1"/><path d="M-820.34 2393.68c37.18 0 67.43 30.25 67.43 67.43s-30.25 67.43-67.43 67.43-67.43-30.25-67.43-67.43 30.25-67.43 67.43-67.43m0-23.79c-50.38 0-91.23 40.84-91.23 91.23 0 50.38 40.84 91.23 91.23 91.23s91.23-40.84 91.23-91.23c-.01-50.39-40.85-91.23-91.23-91.23" class="st0"/><path d="m-868.05 2509.31 94.5-94.49" style="fill:none;stroke:#d44e50;stroke-width:23.7932;stroke-linecap:round;stroke-linejoin:round;stroke-miterlimit:10"/></svg>